REM DIRINDEX 1\2,1\3,1\4,1\5,1\6
REM DIRNAME folder01,folder02,folder03,folder04,folder05,folder06
TITLE ""
FILE "DISC5Track20.mp3" MP3
  TRACK 01 AUDIO
    TITLE "0:"
    INDEX 01 00:00:00
  TRACK 02 AUDIO
    TITLE "3:cjc129_4448"
    INDEX 01 00:00:05
  TRACK 03 AUDIO
    TITLE "0:"
    INDEX 01 00:01:36
  TRACK 04 AUDIO
    TITLE "5:cjc129_4449"
    INDEX 01 00:01:66
  TRACK 05 AUDIO
    TITLE "0:"
    INDEX 01 00:02:73
  TRACK 06 AUDIO
    TITLE "4:cjc129_4450"
    INDEX 01 00:03:64
  TRACK 07 AUDIO
    TITLE "0:"
    INDEX 01 00:05:20
  TRACK 08 AUDIO
    TITLE "6:cjc129_4451"
    INDEX 01 00:05:50
  TRACK 09 AUDIO
    TITLE "0:"
    INDEX 01 00:09:47
  TRACK 10 AUDIO
    TITLE "3:cjc129_4452"
    INDEX 01 00:11:23
  TRACK 11 AUDIO
    TITLE "0:"
    INDEX 01 00:12:34
  TRACK 12 AUDIO
    TITLE "5:cjc129_4453"
    INDEX 01 00:12:63
  TRACK 13 AUDIO
    TITLE "0:"
    INDEX 01 00:15:28
  TRACK 14 AUDIO
    TITLE "4:cjc129_4454"
    INDEX 01 00:16:20
  TRACK 15 AUDIO
    TITLE "0:"
    INDEX 01 00:17:31
  TRACK 16 AUDIO
    TITLE "6:cjc129_4455"
    INDEX 01 00:17:61
  TRACK 17 AUDIO
    TITLE "0:"
    INDEX 01 00:22:19
  TRACK 18 AUDIO
    TITLE "3:cjc129_4456"
    INDEX 01 00:23:69
  TRACK 19 AUDIO
    TITLE "0:"
    INDEX 01 00:25:15
  TRACK 20 AUDIO
    TITLE "5:cjc129_4457"
    INDEX 01 00:25:45
  TRACK 21 AUDIO
    TITLE "0:"
    INDEX 01 00:28:13
  TRACK 22 AUDIO
    TITLE "4:cjc129_4458"
    INDEX 01 00:29:03
  TRACK 23 AUDIO
    TITLE "0:"
    INDEX 01 00:30:24
  TRACK 24 AUDIO
    TITLE "6:cjc129_4459"
    INDEX 01 00:30:54
  TRACK 25 AUDIO
    TITLE "0:"
    INDEX 01 00:35:61
  TRACK 26 AUDIO
    TITLE "3:cjc129_4460"
    INDEX 01 00:37:38
  TRACK 27 AUDIO
    TITLE "0:"
    INDEX 01 00:38:57
  TRACK 28 AUDIO
    TITLE "5:cjc129_4461"
    INDEX 01 00:39:13
  TRACK 29 AUDIO
    TITLE "0:"
    INDEX 01 00:42:00
  TRACK 30 AUDIO
    TITLE "4:cjc129_4462"
    INDEX 01 00:42:66
  TRACK 31 AUDIO
    TITLE "0:"
    INDEX 01 00:44:12
  TRACK 32 AUDIO
    TITLE "6:cjc129_4463"
    INDEX 01 00:44:44
  TRACK 33 AUDIO
    TITLE "0:"
    INDEX 01 00:48:67
  TRACK 34 AUDIO
    TITLE "3:cjc129_4464"
    INDEX 01 00:50:41
  TRACK 35 AUDIO
    TITLE "0:"
    INDEX 01 00:51:58
  TRACK 36 AUDIO
    TITLE "5:cjc129_4465"
    INDEX 01 00:52:16
  TRACK 37 AUDIO
    TITLE "0:"
    INDEX 01 00:57:56
  TRACK 38 AUDIO
    TITLE "4:cjc129_4466"
    INDEX 01 00:58:44
  TRACK 39 AUDIO
    TITLE "0:"
    INDEX 01 00:59:63
  TRACK 40 AUDIO
    TITLE "6:cjc129_4467"
    INDEX 01 01:00:19
  TRACK 41 AUDIO
    TITLE "0:"
    INDEX 01 01:05:30
  TRACK 42 AUDIO
    TITLE "3:cjc129_4468"
    INDEX 01 01:07:10
  TRACK 43 AUDIO
    TITLE "0:"
    INDEX 01 01:08:58
  TRACK 44 AUDIO
    TITLE "5:cjc129_4469"
    INDEX 01 01:09:16
  TRACK 45 AUDIO
    TITLE "0:"
    INDEX 01 01:12:13
  TRACK 46 AUDIO
    TITLE "4:cjc129_4470"
    INDEX 01 01:13:04
  TRACK 47 AUDIO
    TITLE "0:"
    INDEX 01 01:14:51
  TRACK 48 AUDIO
    TITLE "6:cjc129_4471"
    INDEX 01 01:15:11
  TRACK 49 AUDIO
    TITLE "0:"
    INDEX 01 01:21:57
  TRACK 50 AUDIO
    TITLE "3:cjc129_4472"
    INDEX 01 01:23:36
  TRACK 51 AUDIO
    TITLE "0:"
    INDEX 01 01:24:51
  TRACK 52 AUDIO
    TITLE "5:cjc129_4473"
    INDEX 01 01:26:23
  TRACK 53 AUDIO
    TITLE "0:"
    INDEX 01 01:27:30
  TRACK 54 AUDIO
    TITLE "4:cjc129_4474"
    INDEX 01 01:28:22
  TRACK 55 AUDIO
    TITLE "0:"
    INDEX 01 01:29:37
  TRACK 56 AUDIO
    TITLE "6:cjc129_4475"
    INDEX 01 01:29:66
  TRACK 57 AUDIO
    TITLE "0:"
    INDEX 01 01:34:42
  TRACK 58 AUDIO
    TITLE "3:cjc129_4476"
    INDEX 01 01:36:17
  TRACK 59 AUDIO
    TITLE "0:"
    INDEX 01 01:37:32
  TRACK 60 AUDIO
    TITLE "5:cjc129_4477"
    INDEX 01 01:38:65
  TRACK 61 AUDIO
    TITLE "0:"
    INDEX 01 01:39:68
  TRACK 62 AUDIO
    TITLE "4:cjc129_4478"
    INDEX 01 01:40:58
  TRACK 63 AUDIO
    TITLE "0:"
    INDEX 01 01:41:71
  TRACK 64 AUDIO
    TITLE "6:cjc129_4479"
    INDEX 01 01:42:30
  TRACK 65 AUDIO
    TITLE "0:"
    INDEX 01 01:47:25
